# xmcd
#
# Track frame offsets:
#	150
#	13543
#	28742
#	39145
#	52689
#	64450
#	75744
#	90531
#	102885
#	115663
#	128428
#	142679
#	157143
#	169603
#	183966
#	195006
#
# Disc length: 2784 seconds
#
# Revision: 1
# Processed by: cddbd v1.5.2PL0 Copyright (c) Steve Scherf et al.
# Submitted via: audiograbber 1.83.01
#
DISCID=b30ade10
DTITLE=Various Artist - rat pack essential collection disc 1
DYEAR=1900
DGENRE=
TTITLE0=frank sinatra - i get a kick out of you
TTITLE1=sammy davis jr - that old black magic
TTITLE2=dean martin - memories are made of this
TTITLE3=sammy davis jr - love me or leave me
TTITLE4=frank sinatra - you do something to me
TTITLE5=dean martin - be honest with me
TTITLE6=frank sinatra - these foolish things
TTITLE7=dean martin - sway
TTITLE8=sammy davis jr - all of you
TTITLE9=dean martin - under the bridges of paris
TTITLE10=sammy davis jr - my funny valentine
TTITLE11=dean martin - how do you speak to an angel
TTITLE12=sammy davis jr - because of you
TTITLE13=frank sinatra - try a little tenderness
TTITLE14=dean martin - kiss
TTITLE15=frank sinatra - one for my baby
EXTD=
EXTT0=
EXTT1=
EXTT2=
EXTT3=
EXTT4=
EXTT5=
EXTT6=
EXTT7=
EXTT8=
EXTT9=
EXTT10=
EXTT11=
EXTT12=
EXTT13=
EXTT14=
EXTT15=
PLAYORDER=
